<svg xmlns="http://www.w3.org/2000/svg" width="50" height="50" viewBox="0 0 50 50"><path d="M30.075 13.34c-4.613-4.613-12.12-4.613-16.734 0-4.61 4.615-4.61 12.122 0 16.736 4.11 4.107 10.507 4.547 15.117 1.34.097.46.32.897.676 1.254l6.718 6.717c.98.977 2.56.977 3.536 0 .978-.977.978-2.56 0-3.535l-6.718-6.72c-.355-.354-.794-.577-1.253-.673 3.21-4.613 2.77-11.01-1.34-15.12zm-2.12 14.615c-3.445 3.444-9.05 3.444-12.493 0-3.442-3.444-3.442-9.048 0-12.492 3.444-3.444 9.048-3.444 12.492 0s3.444 9.048 0 12.492z"/></svg>